<svg viewBox="0 0 256 256" xmlns="http://www.w3.org/2000/svg">
  <!-- Background -->
  <rect width="256" height="256" rx="40" fill="#0D1F33"/>
  <!-- 8 bold amber sun rays -->
  <rect x="120" y="12" width="16" height="50" rx="8" fill="#F59E0B" transform="rotate(0 128 128)"/>
  <rect x="120" y="12" width="16" height="50" rx="8" fill="#F59E0B" transform="rotate(45 128 128)"/>
  <rect x="120" y="12" width="16" height="50" rx="8" fill="#F59E0B" transform="rotate(90 128 128)"/>
  <rect x="120" y="12" width="16" height="50" rx="8" fill="#F59E0B" transform="rotate(135 128 128)"/>
  <rect x="120" y="12" width="16" height="50" rx="8" fill="#F59E0B" transform="rotate(180 128 128)"/>
  <rect x="120" y="12" width="16" height="50" rx="8" fill="#F59E0B" transform="rotate(225 128 128)"/>
  <rect x="120" y="12" width="16" height="50" rx="8" fill="#F59E0B" transform="rotate(270 128 128)"/>
  <rect x="120" y="12" width="16" height="50" rx="8" fill="#F59E0B" transform="rotate(315 128 128)"/>
  <!-- Sun disc -->
  <circle cx="128" cy="128" r="66" fill="#F59E0B"/>
  <!-- Navy eye ring -->
  <circle cx="128" cy="128" r="44" fill="#0D1F33"/>
  <!-- Cyan sentinel iris -->
  <circle cx="128" cy="128" r="28" fill="#00C8E8"/>
  <!-- Navy pupil -->
  <circle cx="128" cy="128" r="12" fill="#0D1F33"/>
  <!-- White bright core -->
  <circle cx="128" cy="128" r="5" fill="#FFFFFF"/>
</svg>
